<svg width="351" height="395" viewBox="0 0 351 395" fill="none" xmlns="http://www.w3.org/2000/svg">
<path d="M107.696 57.168C105.648 57.168 104.24 56.848 103.472 56.08C102.704 55.312 102.32 53.904 102.192 51.792C101.872 45.84 101.744 41.744 101.744 39.504C101.744 36.368 101.936 26.448 102.384 9.808C102.384 9.36 102.448 8.848 102.576 8.336C102.64 7.824 102.704 7.376 102.832 6.992C102.896 6.608 103.024 6.16 103.216 5.52C103.344 4.88 103.472 4.432 103.6 4.048C103.728 3.536 103.984 3.152 104.432 3.024C104.56 3.024 105.008 2.896 105.712 2.704C106.416 2.512 106.928 2.384 107.184 2.32C107.44 2.256 107.824 2.192 108.464 2.064C109.04 1.936 109.488 1.936 109.872 1.936C110.256 1.936 110.704 2 111.216 2.128C111.728 2.256 112.176 2.384 112.688 2.576C113.904 3.216 114.608 4.368 114.736 6.032C114.736 6.8 114.8 9.36 114.864 13.776C114.864 18.192 114.992 20.944 115.12 22.032C115.248 22.8 115.696 23.632 116.464 24.464C116.848 24.912 117.232 25.36 117.68 25.808C118.128 26.32 118.64 26.832 119.216 27.344C119.728 27.92 120.176 28.368 120.56 28.624C121.072 29.136 121.392 29.712 121.648 30.288C121.904 30.928 121.968 31.632 121.904 32.4C121.84 33.168 121.776 33.744 121.712 34.128C121.584 34.512 121.456 35.216 121.2 36.112C120.816 37.648 119.472 38.48 117.168 38.48C115.952 38.48 115.184 38.672 114.928 38.992C114.608 39.376 114.48 40.208 114.544 41.616C114.544 42.576 114.544 44.304 114.608 46.736C114.672 49.168 114.736 50.832 114.736 51.664C114.736 53.392 114.288 54.544 113.264 55.12C110.704 56.528 108.848 57.232 107.696 57.168ZM71.408 12.304C74.288 11.536 77.424 11.408 80.88 11.984C81.52 12.112 82.096 12.752 82.608 13.84C83.12 14.928 83.312 15.952 83.184 16.848C83.12 17.232 82.928 19.792 82.672 24.4C82.672 24.784 82.736 25.04 82.928 25.168C83.056 25.296 83.376 25.36 83.76 25.36C88.368 26 91.952 26.96 94.512 28.24C95.472 28.752 96.048 29.136 96.176 29.392C96.304 29.648 96.304 30.352 96.112 31.376C95.856 32.272 95.728 33.552 95.664 35.088C95.536 36.688 95.344 38.032 95.088 39.056C94.832 39.888 94.512 40.4 94.192 40.592C93.872 40.848 93.552 40.912 93.232 40.784C92.912 40.656 92.4 40.528 91.696 40.272C90.992 40.08 90.288 39.952 89.648 39.952C89.52 39.952 89.328 39.952 89.2 39.824L88.944 39.632C85.104 38.096 82.608 36.624 81.456 35.28C81.264 35.088 81.072 34.896 80.816 34.704C80.56 34.512 80.24 34.256 79.856 34C79.472 33.744 79.216 33.552 79.024 33.424C77.232 36.24 76.336 37.712 76.208 37.904C74.032 41.04 72.496 43.216 71.536 44.432C71.344 44.624 71.088 44.88 70.832 45.264C70.576 45.648 70.32 46.032 70.064 46.352C69.808 46.672 69.552 47.056 69.232 47.504C68.848 47.952 68.528 48.272 68.272 48.528C68.016 48.784 67.696 49.04 67.376 49.296C66.992 49.552 66.736 49.68 66.48 49.68C66.224 49.68 65.904 49.616 65.648 49.488C62.832 47.696 61.104 44.752 60.464 40.656C60.336 40.016 60.592 39.248 61.232 38.352C62.576 36.432 64.816 33.424 67.888 29.264C68.4 28.56 68.976 27.92 69.616 27.28C70.512 26.384 71.024 25.104 71.152 23.376C71.216 22.672 71.344 21.456 71.536 19.664C71.664 17.872 71.792 16.528 71.92 15.504C71.92 15.248 71.856 14.992 71.856 14.736C71.792 14.48 71.728 14.224 71.6 13.904C71.472 13.584 71.408 13.328 71.408 13.136V12.304ZM177.392 18.64V24.976C177.392 25.68 177.264 26.96 177.136 28.752C177.008 29.776 176.368 30.352 175.344 30.352C173.04 30.416 171.12 30.416 169.456 30.288C168.496 30.288 167.664 29.904 167.024 29.264C166.384 28.624 166 27.856 166 26.96C165.936 23.824 165.936 19.856 166 15.056C166 14.352 166.064 12.688 166.128 10.128C166.192 7.568 166.256 5.776 166.32 4.816C166.32 3.536 166.768 2.704 167.664 2.192C167.856 2.064 168.24 1.872 168.816 1.552C169.392 1.296 169.84 1.04 170.16 0.911999C170.416 0.783997 170.8 0.655998 171.312 0.463997C171.824 0.271999 172.272 0.143997 172.72 0.079998C173.168 0.0159988 173.616 0.0159988 174.128 0.0159988C174.896 0.079998 175.472 0.143997 175.856 0.271999C176.752 0.655998 177.2 1.296 177.2 2.256C177.2 4.048 177.328 6.352 177.648 9.04C177.712 9.552 178.096 9.872 178.864 9.936C181.936 10.192 183.664 10.32 184.048 10.384C184.944 10.64 185.52 11.344 185.648 12.624C185.84 14.544 185.52 16.272 184.624 17.744C184.368 18.192 183.6 18.512 182.448 18.64H177.392ZM136.048 21.136C135.856 21.904 135.856 22.8 136.112 23.76C136.368 24.784 136.752 25.232 137.392 25.168C138.544 25.104 141.36 25.232 145.84 25.552C150.32 25.936 153.072 26.064 154.096 26C154.544 27.664 154.672 28.752 154.544 29.328C154.416 29.968 153.776 30.736 152.624 31.696C152.496 31.824 152.112 31.952 151.6 32.016C151.088 32.08 150.768 32.08 150.704 32.08C148.528 32.72 144.56 32.72 138.928 32.08C134.128 31.568 131.184 31.248 130.16 31.056C128.368 30.8 127.216 30.48 126.832 30.16C126.448 29.84 126.192 29.008 126.128 27.6C126.064 26.704 125.872 25.808 125.552 24.784C125.168 23.76 124.976 22.928 124.848 22.16C124.592 20.688 125.04 19.152 126.064 17.616C127.088 16.08 128.368 15.312 129.968 15.248C131.504 15.184 134.512 15.12 138.864 14.992C143.216 14.928 145.84 14.864 146.864 14.8L147.312 14.224C147.248 14.096 147.184 13.968 147.184 13.712C147.056 13.072 146.928 12.56 146.864 12.24C146.736 11.92 146.544 11.6 146.288 11.216C146.032 10.832 145.648 10.576 145.136 10.448C144.624 10.32 143.984 10.256 143.152 10.256C137.52 10.256 132.976 10.384 129.584 10.576C127.984 10.704 126.896 10.512 126.256 9.872C125.616 9.232 125.488 8.144 125.808 6.608C125.872 6.224 126 5.904 126.192 5.648C126.32 5.392 126.576 5.136 126.832 4.88C127.088 4.624 127.344 4.304 127.6 3.984C127.984 3.408 128.56 3.088 129.456 2.96C130.864 2.832 132.784 2.704 135.344 2.576C137.904 2.448 139.568 2.32 140.464 2.256C140.848 2.256 141.808 2.128 143.408 1.936C145.008 1.808 146.224 1.68 147.12 1.68C149.104 1.68 151.536 1.936 154.416 2.32C155.312 2.512 155.952 2.832 156.208 3.28C156.464 3.792 156.592 4.56 156.656 5.584C156.656 6.096 156.72 7.056 156.848 8.464C156.976 9.936 157.04 10.96 157.04 11.472C157.04 11.984 156.976 12.752 156.976 13.776C156.912 14.8 156.784 15.696 156.592 16.528C156.144 18.512 155.376 19.728 154.352 20.112C153.264 20.56 151.344 20.752 148.656 20.624C147.76 20.624 145.648 20.688 142.384 20.816C139.12 20.944 137.008 21.072 136.048 21.136ZM152.688 52.304C155.952 52.304 157.872 52.24 158.512 52.048C159.024 51.92 159.408 51.792 159.664 51.536C159.92 51.28 160.112 50.96 160.24 50.576C160.304 50.192 160.368 49.872 160.368 49.488C160.368 49.168 160.368 48.656 160.368 47.952C160.304 47.312 160.304 46.736 160.368 46.224V45.904C160.368 45.392 160.24 44.944 160.112 44.688C159.92 44.432 159.6 44.304 159.088 44.304H148.4V51.216C149.936 51.984 151.344 52.304 152.688 52.304ZM145.712 35.28C145.904 35.28 146.224 35.344 146.608 35.344C146.992 35.344 147.312 35.344 147.568 35.344C153.264 35.344 157.552 35.152 160.368 34.768C161.136 34.704 161.904 34.64 162.672 34.64C166.128 34.64 169.136 35.728 171.696 37.904C172.336 38.416 172.848 39.248 173.232 40.4C173.616 41.552 173.872 42.768 173.872 43.92C173.872 44.432 173.808 44.88 173.744 45.264C173.616 46.032 173.36 47.184 173.104 48.784C172.784 50.384 172.528 51.6 172.4 52.496C172.016 54.288 171.696 55.632 171.312 56.656C171.056 57.168 170.608 57.616 169.904 57.872C166.064 59.28 162.032 59.984 157.68 59.984C153.328 59.984 150.512 59.856 149.36 59.6C143.408 58.32 139.952 57.488 138.992 57.168C138.608 57.04 138.224 56.784 137.84 56.272C137.456 55.76 137.264 55.248 137.136 54.736C137.008 54.352 136.944 53.904 136.944 53.264C136.944 53.008 136.944 52.688 136.944 52.176C136.944 51.664 137.008 51.408 137.008 51.28C137.136 47.376 137.328 44.752 137.456 43.472C137.712 40.272 138.48 38.096 139.696 36.944C140.912 35.856 142.896 35.28 145.712 35.28ZM219.248 33.872C214 34.128 211.184 34.192 210.672 34.192C200.304 34.192 194.48 34.064 193.072 33.68C191.792 33.36 191.088 32.72 190.896 31.824C190.704 30.928 190.832 29.584 191.344 27.792C191.536 27.536 191.664 27.216 191.728 26.768C191.792 26.32 191.984 25.936 192.304 25.68C192.432 25.552 192.752 25.424 193.2 25.424H203.952H214.704C215.024 25.424 215.856 25.488 217.264 25.616C218.672 25.744 219.44 25.872 219.632 25.872C220.016 25.872 223.536 25.936 230.064 26.064C236.592 26.192 240.368 26.256 241.392 26.384C241.584 26.384 241.84 26.576 242.096 26.832C242.352 27.088 242.544 27.344 242.608 27.536C242.864 29.2 242.864 30.48 242.608 31.376C242.224 32.784 241.008 33.552 238.96 33.68C238.32 33.744 234.992 33.808 229.04 33.808C223.024 33.872 219.76 33.936 219.248 33.936V33.872ZM206.576 14.16C213.744 13.776 217.584 13.52 218.096 13.456L225.008 13.008L232.624 12.688L237.04 13.2C237.104 13.264 237.232 13.328 237.36 13.328C237.488 13.392 237.68 13.52 238 13.648C238.32 13.84 238.576 14.032 238.832 14.224C239.024 14.416 239.216 14.672 239.344 14.992C239.472 15.312 239.536 15.632 239.472 15.952C239.344 16.592 239.152 17.296 238.896 17.936C238.64 18.576 238.384 19.344 238.064 20.176C237.68 21.072 237.488 21.648 237.36 21.968C226.672 22.224 220.976 22.288 220.208 22.224C219.824 22.224 213.872 22.032 202.224 21.648H200.688H199.152C197.616 21.648 196.656 21.456 196.272 21.072C195.824 20.688 195.632 19.92 195.76 18.832C195.76 18.192 195.888 17.168 196.208 15.888C196.464 14.608 196.656 13.904 196.656 13.712C196.72 13.264 196.848 12.56 196.976 11.664C197.104 10.768 197.168 10.064 197.296 9.616L198.32 4.048L205.104 1.168C210.864 1.424 215.28 1.232 218.224 0.527996C218.608 0.399998 218.992 0.335999 219.44 0.271999C219.888 0.271999 220.4 0.271999 220.976 0.271999C221.488 0.271999 221.936 0.335999 222.32 0.335999C222.64 0.335999 223.152 0.399998 223.856 0.463997C224.56 0.527996 225.008 0.591999 225.264 0.591999C226.672 0.719997 228.656 0.975998 231.344 1.232C233.968 1.552 235.888 1.744 237.04 1.808C237.936 1.936 238.576 2.128 238.96 2.384C239.344 2.64 239.472 3.088 239.344 3.728L238.64 7.696C237.232 9.104 235.888 9.744 234.608 9.744C233.328 9.808 231.472 9.808 229.04 9.808C226.608 9.808 224.88 9.744 223.856 9.744C220.272 9.744 217.072 9.808 214.32 9.936C213.744 10 212.848 10.128 211.696 10.256C210.48 10.384 209.584 10.448 208.944 10.448C208.176 10.512 207.664 10.64 207.344 10.832C206.96 11.024 206.832 11.344 206.832 11.792C206.768 11.92 206.704 12.752 206.576 14.16ZM200.688 44.944C200.56 44.944 200.24 45.008 199.728 45.008C199.216 45.072 198.832 45.072 198.64 45.072C198.384 45.072 198.128 45.072 197.744 45.008C197.36 44.944 197.04 44.816 196.912 44.688C196.72 44.56 196.528 44.304 196.336 44.048C196.144 43.792 196.016 43.408 196.016 42.96C195.952 42.704 195.888 42.32 195.76 41.68C195.632 41.04 195.568 40.528 195.568 40.08C195.568 39.504 195.632 38.928 195.824 38.288C195.824 38.032 196.016 37.776 196.4 37.52C196.784 37.264 197.168 37.072 197.616 37.072C214.896 37.072 226.928 37.2 233.84 37.584C235.248 37.712 236.336 37.84 237.168 38.096C238.128 38.416 238.704 38.864 238.896 39.376C239.088 40.144 239.216 40.976 239.216 41.808C239.216 42.768 239.024 43.92 238.768 45.264C238.256 47.504 236.976 49.104 234.864 50C233.712 50.512 231.6 50.896 228.592 51.152C227.504 51.28 225.968 51.344 223.92 51.344C221.872 51.408 220.464 51.472 219.632 51.472C219.504 51.472 217.2 51.536 212.784 51.6C208.304 51.664 205.872 51.728 205.424 51.856L205.488 53.392C206.256 53.392 209.136 53.392 214.128 53.328C219.12 53.264 222.064 53.2 222.832 53.2C224.56 53.2 226.096 53.2 227.44 53.136C228.336 53.136 229.744 53.072 231.6 52.944C233.392 52.816 234.736 52.752 235.632 52.752H235.76C236.912 52.752 237.552 53.136 237.552 53.904V54.224C237.168 56.016 236.848 57.424 236.592 58.32C236.272 59.216 235.76 59.856 235.056 60.24C234.352 60.624 233.2 60.752 231.536 60.752H230.768C229.104 60.752 226.736 60.624 223.728 60.432C220.72 60.24 218.608 60.112 217.392 60.048C215.472 59.984 213.808 59.984 212.336 60.048C210.864 60.112 209.2 60.112 207.408 60.048C205.616 59.984 204.016 59.792 202.608 59.536C200.688 59.152 199.344 58.512 198.576 57.616C197.808 56.72 197.36 55.568 197.104 54.032C197.04 53.776 197.04 53.072 197.04 51.984C197.04 51.92 197.04 51.472 197.104 50.64C197.104 49.424 197.488 48.592 198.128 48.08C198.768 47.632 199.856 47.376 201.52 47.312C207.664 47.184 215.792 46.928 225.968 46.544C227.248 46.544 227.888 46.096 227.888 45.328L227.824 45.008C227.824 44.816 227.824 44.624 227.824 44.432V44.048C227.824 43.984 227.504 43.92 226.864 43.92C226.224 43.92 225.072 43.92 223.408 43.984C221.744 44.048 220.016 44.112 218.16 44.176C216.304 44.304 213.68 44.432 210.352 44.56C207.024 44.688 203.76 44.816 200.688 44.944ZM293.36 2.128C295.792 2 297.136 1.936 297.264 1.936C298.672 2 300.016 2.128 301.424 2.32C302.832 2.512 304.048 2.64 305.136 2.704C306.352 2.832 306.992 3.536 307.056 4.752C307.056 6.288 307.184 8.656 307.376 11.792C307.568 14.992 307.696 17.36 307.76 18.96C307.824 20.176 307.824 22.352 307.824 25.424C307.824 28.56 307.824 30.736 307.824 31.888C307.824 33.616 307.824 37.136 307.824 42.512C307.824 47.888 307.824 51.472 307.824 53.2V53.328C307.824 54.224 307.696 55.12 307.44 55.888C306.864 57.488 305.84 58.256 304.368 58.192C303.664 58.192 302.832 58.256 301.936 58.256C301.04 58.256 300.272 58.256 299.632 58.128C299.12 58.128 298.544 57.936 298.032 57.616C297.456 57.36 297.072 56.976 296.944 56.592C295.664 53.52 295.024 51.152 294.96 49.488C294.768 45.776 294.64 39.44 294.576 30.608C294.512 21.776 294.448 15.76 294.32 12.496C294.32 11.472 294.256 10.448 294.128 9.296C294 8.144 293.872 6.864 293.744 5.392L293.36 2.128ZM269.424 55.824C263.856 55.76 259.248 53.84 255.536 50C254.256 48.72 253.36 46.544 252.976 43.472C252.336 39.248 252.016 35.472 252.08 32.208C252.08 26.576 253.296 21.136 255.728 15.888C255.92 15.44 256.112 15.12 256.304 14.928C259.632 11.6 261.744 9.552 262.64 8.784C262.832 8.592 263.088 8.464 263.408 8.336C263.664 8.272 264.048 8.208 264.56 8.144C265.008 8.08 265.328 8.016 265.52 8.016C268.4 7.376 271.152 7.568 273.712 8.592C276.272 9.616 278.96 11.28 281.648 13.456C282.736 14.48 283.632 15.376 284.272 16.208C284.912 17.04 285.36 18 285.616 19.088C286.128 21.84 286.32 24.144 286.128 25.936C285.744 30.288 285.04 35.024 284.144 40.208C283.056 46.288 280.24 50.768 275.632 53.584C272.816 55.376 270.704 56.08 269.424 55.824ZM276.4 29.136C276.336 29.008 276.272 28.624 276.208 28.112C276.08 27.6 276.016 27.216 275.952 26.96C275.888 26.768 275.824 26.448 275.696 26.064C275.568 25.68 275.44 25.36 275.248 25.04C275.056 24.784 274.864 24.464 274.608 24.208C273.072 22.608 271.408 21.968 269.616 22.288C267.76 22.672 266.48 23.888 265.712 26C264.752 28.432 264.496 30.608 264.88 32.528C265.008 33.296 265.136 34.512 265.328 36.112C265.52 37.776 265.712 38.992 265.904 39.824C266.096 40.784 266.672 41.616 267.696 42.32C268.656 43.024 269.616 43.344 270.64 43.344C271.344 43.344 272.048 43.088 272.816 42.512C273.52 42 273.968 41.296 274.16 40.4C274.288 39.696 275.056 35.92 276.4 29.136Z" fill="#4E413B"/>
<path d="M114.127 123.248C114.127 123.376 114.127 123.504 114.383 123.504C114.639 123.76 115.151 123.888 115.919 124.144C116.687 124.4 117.327 124.528 117.839 124.784C118.351 125.04 118.607 125.296 118.735 125.552C119.375 127.984 119.631 130.8 119.503 133.872C119.375 134.896 118.735 141.68 117.711 154.224C116.815 163.696 116.047 173.168 115.279 182.64C114.383 191.856 113.871 197.36 113.871 199.152C113.615 200.688 113.487 202.736 113.359 205.424C113.231 208.112 113.103 210.544 112.975 212.72C112.719 214.896 112.591 216.944 112.335 218.864C112.079 220.656 110.799 223.216 108.751 226.672C108.239 227.568 107.087 227.952 105.295 227.952C104.911 228.08 101.199 228.08 94.0305 228.08C92.7505 228.08 91.7265 227.824 90.9585 227.056C90.1905 226.288 89.6785 225.392 89.6785 224.112L88.7825 210.672C88.7825 210.416 88.6545 209.52 88.5265 207.984C88.2705 206.448 88.2705 205.296 88.3985 204.528C88.6545 200.816 89.1665 197.104 89.9345 193.392C90.3185 190.96 90.1905 189.296 89.4225 188.528C88.6545 187.76 87.1185 187.632 84.8145 188.144C81.2305 188.912 78.2865 188.016 75.9825 185.712C73.5505 183.408 72.6545 180.592 73.2945 177.008C73.8065 173.68 75.2145 170.992 77.5185 168.944C79.6945 167.024 82.5105 165.872 86.0945 165.616C87.7585 165.616 89.2945 164.976 90.5745 163.824C91.8545 162.672 92.6225 161.264 92.7505 159.728C92.8785 157.168 93.1345 153.2 93.6465 147.568C94.0305 142.064 94.2865 137.84 94.5425 134.896C94.6705 133.616 95.0545 131.312 95.8225 128.24C96.4625 125.424 98.2545 124.144 101.199 124.144C104.527 124.272 107.727 124.272 110.671 124.272C110.671 124.272 111.823 124.016 114.127 123.248ZM6.8625 131.184C8.14251 131.312 11.4705 131.056 16.5905 130.416C21.7105 129.904 26.5745 129.392 31.4385 128.88C36.3025 128.368 41.1665 128.496 46.2865 129.264C51.4065 130.032 54.9905 131.696 57.2945 134.128C58.4465 136.944 59.2145 140.144 59.4705 143.6C59.7265 147.056 59.5985 150.256 59.2145 153.072C58.7025 156.016 58.4465 159.216 58.4465 162.8C58.3185 166.384 58.5745 169.584 59.3425 172.528C60.8785 179.44 61.5185 184.56 61.2625 188.144C61.1345 189.936 61.2625 192.752 61.5185 196.72C61.7745 200.688 61.9025 204.272 61.7745 207.344C61.6465 210.544 61.0065 213.104 59.9825 215.024C58.8305 217.328 57.2945 218.608 55.3745 218.992C52.4305 220.016 49.1025 220.528 45.3905 220.784C41.6785 221.04 38.3505 221.168 35.2785 220.912C32.2065 220.656 28.8785 220.656 25.2945 220.784C19.0225 222.32 11.7265 220.912 3.5345 216.56C2.25451 216.176 1.48651 214.384 1.48651 211.056C1.35851 207.728 1.6145 204.016 2.1265 199.92C2.6385 195.824 2.76651 193.264 2.76651 192.368C2.76651 191.472 2.89451 190.064 3.02251 188.144C3.15051 186.352 3.27851 184.944 3.27851 184.048C3.27851 183.152 3.15051 181.744 3.02251 179.824C2.89451 179.44 2.51051 177.136 1.99851 173.04C1.35851 168.944 0.974505 165.744 0.974505 163.568C0.974505 162.032 1.10251 159.728 1.10251 156.528C1.10251 153.328 1.10251 150.384 1.10251 147.696C1.10251 145.008 1.35851 142.32 1.6145 139.632C1.8705 137.072 2.3825 134.896 3.27851 133.36C4.17451 131.824 5.32651 131.184 6.8625 131.184ZM17.2305 154.48C17.4865 159.728 17.6145 167.408 17.4865 177.52C17.3585 187.632 17.6145 193.904 18.2545 196.464C18.5105 198 19.7905 198.768 21.8385 198.768C22.4785 198.768 23.8865 198.896 26.0625 199.024C28.2385 199.152 30.1585 199.152 31.6945 199.152C33.2305 199.152 35.0225 199.152 36.8145 198.896C38.6065 198.768 40.0145 198.384 41.0385 197.616C42.0625 196.848 42.5745 195.824 42.7025 194.544C43.3425 185.328 43.4705 173.808 42.9585 159.984C42.8305 158.576 42.3185 157.296 41.4225 156.272C40.3985 155.248 39.3745 154.736 38.0945 154.736H37.9665H37.8385C29.5185 154.992 22.6065 154.992 17.2305 154.48ZM238.543 145.136C238.415 151.792 238.159 156.656 237.903 159.728C237.519 163.184 236.751 166.512 235.727 169.712C235.215 171.248 234.703 172.272 233.935 172.528C233.167 172.912 231.887 173.04 229.967 172.784C227.151 172.528 225.359 172.4 224.719 172.4C222.671 172.528 221.519 171.76 221.263 170.096C220.751 167.536 220.367 164.976 220.111 162.416C219.983 161.136 219.855 159.344 219.727 156.912C219.599 154.48 219.471 152.816 219.471 151.92C219.343 150.512 218.575 149.488 217.295 148.976C216.015 148.464 214.607 148.592 213.199 149.36C212.431 149.872 212.175 150.64 212.303 151.664C212.431 153.328 212.815 156.144 213.327 160.112C213.839 164.208 214.095 167.28 214.351 169.328C214.479 170.608 214.351 172.272 213.839 174.448C213.583 175.216 213.071 175.728 212.303 175.984L205.135 178.288C201.679 178.672 199.247 178.416 197.967 177.52C196.687 176.88 196.047 175.984 196.047 174.832C195.151 164.08 194.639 155.504 194.382 149.232L193.743 123.632L195.151 118.128L203.087 117.488C204.495 117.616 205.647 117.744 206.415 117.872C207.695 118.128 208.591 118.896 209.231 120.048C209.743 121.2 209.999 122.224 209.999 123.12L209.871 124.528L209.359 136.304L213.071 139.504H215.759C217.807 139.376 219.087 138.992 219.727 138.48C220.239 137.968 220.623 136.944 220.623 135.28C220.495 134 220.367 131.44 220.239 127.728C220.111 124.016 220.111 121.2 220.111 119.152C219.983 117.616 220.239 116.72 221.007 116.208C221.647 115.696 222.927 115.44 224.847 115.312C230.863 115.184 235.087 116.72 237.647 119.792C238.031 120.304 238.287 120.944 238.543 121.584C238.799 122.352 238.927 123.12 239.183 123.888C239.311 124.784 239.439 125.424 239.695 125.808C239.439 125.808 239.183 128.24 238.927 132.976C238.671 137.84 238.543 141.808 238.543 145.136ZM149.455 156.016C149.071 157.552 149.071 158.96 149.583 160.496C150.095 162.032 150.863 162.8 152.143 162.672C154.447 162.544 159.694 162.544 167.887 162.8C176.079 163.056 181.071 163.184 182.991 163.056C184.015 166.256 184.527 168.432 184.527 169.712C184.527 170.992 183.375 172.656 181.327 174.448C181.071 174.704 180.303 174.96 179.279 175.088C178.255 175.216 177.615 175.344 177.487 175.344C175.439 175.856 172.879 176.24 169.807 176.24C166.735 176.24 164.303 176.24 162.767 176.112C161.231 175.984 158.671 175.728 155.215 175.216C145.615 174.32 139.727 173.68 137.679 173.168C134.095 172.656 131.791 172.016 131.023 171.376C130.255 170.736 129.743 169.072 129.615 166.256C129.487 164.464 129.103 162.672 128.463 160.624C127.695 158.576 127.311 156.912 127.055 155.376C126.543 152.56 127.311 150 129.359 147.696C131.407 145.392 133.967 144.24 137.295 144.112C138.575 144.112 146.895 143.728 162.127 143.216L163.023 142.064C162.895 141.808 162.767 141.296 162.639 140.4C162.511 139.632 162.383 138.992 162.383 138.736C162.255 138.48 162.127 138.096 161.999 137.456C161.743 136.816 161.615 136.432 161.487 136.176C161.231 135.92 160.975 135.664 160.719 135.152C160.463 134.64 160.079 134.384 159.823 134.128C159.439 134 159.055 133.744 158.543 133.488C158.031 133.232 157.519 133.104 156.879 132.976C156.239 132.976 155.471 132.848 154.703 132.848C149.327 132.848 143.183 133.104 136.527 133.488C133.199 133.744 130.895 133.488 129.871 132.592C128.719 131.824 128.463 129.904 128.975 126.832C129.359 124.912 130.51 122.352 132.559 119.024C133.327 117.872 134.479 117.232 136.271 116.976C139.087 116.72 142.927 116.464 148.047 116.208C153.167 115.952 156.495 115.696 158.287 115.568C159.055 115.568 160.975 115.312 164.175 114.928C167.375 114.672 169.807 114.416 171.599 114.416C172.751 114.416 173.519 114.544 174.031 114.544C174.543 114.544 174.799 114.672 174.927 114.672C175.055 114.8 175.183 114.928 175.183 114.928C175.183 115.056 175.567 115.184 176.079 115.312C176.591 115.568 177.359 115.696 178.511 115.824C182.095 116.336 183.631 118.512 182.991 122.224C182.479 124.528 182.351 128.24 182.351 133.232C182.351 138.352 182.095 141.936 181.583 144.24C181.327 145.392 181.071 146.8 180.815 148.464C180.559 150.128 180.431 151.152 180.303 151.664C180.047 152.176 179.663 152.816 179.151 153.584C178.639 154.352 177.743 154.736 176.719 154.864C175.567 154.992 174.031 154.992 172.111 154.864C170.319 154.864 166.607 154.992 160.975 155.248C155.343 155.504 151.503 155.76 149.455 156.016ZM201.039 218.48C203.087 218.48 204.879 217.712 206.415 215.92C207.951 214.256 208.719 212.208 208.719 209.648C208.719 206.064 206.671 203.888 202.831 202.992C198.607 202.224 190.287 201.712 177.871 201.712H177.743C176.463 201.712 175.439 201.968 174.543 202.352C173.647 202.864 172.879 203.504 172.367 204.4C171.855 205.296 171.471 206.064 171.215 206.704C170.959 207.472 170.703 208.368 170.447 209.648C170.191 210.288 170.191 210.8 170.191 211.312C170.191 212.72 170.575 213.872 171.599 214.64C172.623 215.536 173.775 216.048 175.311 216.304C176.719 216.688 178.639 216.944 181.199 217.2C183.631 217.456 185.807 217.712 187.727 217.712C189.519 217.84 191.951 217.968 194.895 218.096C197.839 218.352 199.759 218.48 200.655 218.48H201.039ZM182.223 188.656C187.087 188.656 192.975 189.168 199.631 189.936C206.287 190.704 211.919 191.728 216.527 193.008C224.335 195.312 228.687 199.408 229.583 205.296C229.839 206.832 229.967 208.24 229.967 209.52C229.967 215.28 227.663 219.888 223.183 223.216C220.111 225.52 217.551 227.44 215.503 228.72C213.455 230 211.023 231.28 207.951 232.432C204.879 233.712 201.807 234.352 198.735 234.352C197.455 234.352 194.382 234.608 189.391 234.864C184.399 235.12 181.071 235.248 179.407 235.248C176.975 235.248 174.799 235.12 173.007 234.736C172.495 234.736 171.983 234.736 171.215 234.48C167.631 233.968 164.815 233.456 163.023 233.072C161.103 232.688 158.799 231.92 156.111 230.64C153.423 229.488 151.119 227.952 149.327 226.032C145.871 222.704 144.207 219.632 144.207 216.688C144.207 210.8 144.975 206.32 146.767 203.376C151.503 195.44 161.359 190.576 176.207 189.04C178.127 188.784 180.175 188.656 182.223 188.656ZM349.903 162.416C350.287 174.704 345.167 184.432 334.415 191.6C333.391 192.24 332.879 193.264 332.623 194.8C332.367 195.952 332.239 197.744 331.983 200.176C331.727 202.736 331.471 204.528 331.215 205.68C330.703 208.88 328.527 210.544 324.943 210.8C319.567 211.056 315.599 211.312 313.039 211.312C309.711 211.44 307.791 211.184 307.279 210.672C306.767 210.16 306.639 208.112 306.895 204.784C306.895 203.632 306.895 201.968 306.767 199.664C306.639 197.36 306.639 195.696 306.767 194.544C306.767 190.704 307.151 186.992 307.791 183.152C307.919 182.256 308.559 181.36 309.839 180.336C314.447 176.624 317.519 174.32 319.055 173.296C321.359 172.016 323.023 169.712 324.047 166.512C325.071 163.312 325.199 160.496 324.687 158.192C323.663 154.48 321.743 151.664 319.183 149.872C316.495 148.08 313.807 147.184 310.991 147.312C309.455 147.44 308.047 147.44 306.767 147.312C305.487 147.312 304.079 147.312 302.543 147.568C301.007 147.824 299.727 148.336 298.575 149.104C296.143 150.512 295.119 152.304 295.631 154.48C295.631 154.736 295.887 155.632 296.143 157.04C296.399 158.448 296.655 159.472 296.911 160.112C297.295 162.16 296.655 163.184 294.863 163.44C294.351 163.568 292.431 163.952 289.231 164.464C285.903 165.104 283.471 165.488 281.807 165.616C280.655 165.744 279.631 165.488 278.863 164.72C278.095 164.08 277.583 163.184 277.327 162.032C276.559 158.32 275.919 155.376 275.663 153.2C275.407 151.024 275.279 148.336 275.407 145.008C275.407 141.808 275.919 138.864 276.943 136.176C278.991 130.16 283.087 125.552 289.103 122.48C296.399 118.768 303.311 116.976 309.711 117.232C315.215 117.488 319.439 117.616 322.511 117.872C324.047 118 325.327 118.384 326.479 118.896C326.735 119.152 327.759 119.792 329.295 120.56C330.831 121.328 331.855 121.968 332.367 122.224C332.879 122.608 333.775 123.248 335.055 124.016C336.335 124.784 337.231 125.552 337.871 126.064C338.511 126.704 339.279 127.472 340.047 128.368C340.815 129.264 341.583 130.16 342.095 131.184C344.655 136.048 346.703 141.424 348.239 147.312C348.495 148.848 348.751 150.384 349.007 152.048C349.135 153.712 349.263 155.632 349.391 157.68C349.519 159.856 349.647 161.392 349.903 162.416ZM307.407 222.832C307.407 220.528 307.535 219.248 308.047 218.736C308.431 218.352 309.839 218.096 312.271 217.84C313.039 217.84 314.191 217.712 315.983 217.456C317.647 217.2 318.927 217.072 319.823 216.944C322.127 216.944 324.175 217.072 326.095 217.328C326.479 217.456 326.991 217.712 327.503 218.224C328.015 218.736 328.271 219.12 328.271 219.376C328.527 223.344 328.527 226.672 328.271 229.488C328.271 230.128 327.887 230.768 327.375 231.408C326.735 232.048 326.223 232.432 325.711 232.432C320.847 233.328 316.367 233.84 312.527 233.968C311.119 234.096 309.967 233.712 309.199 232.944C308.303 232.176 307.919 231.024 307.919 229.488C307.919 229.232 307.663 227.056 307.407 222.832Z" fill="#BC5148"/>
<path d="M135.76 377.104C135.504 378.512 135.12 380.688 134.608 383.504C134.096 386.32 133.84 388.112 133.712 388.752C133.328 390.672 132.176 391.824 130.384 392.08C128.464 392.464 124.112 392.72 117.2 392.848C115.408 392.976 114.384 391.952 114.128 389.776V386.832V384.4C114.128 383.888 114.128 383.248 114.128 382.608C114.128 381.968 114.128 381.456 114.128 381.072C114 380.816 114 380.432 114 380.176C114 379.92 113.872 379.664 113.616 379.408C113.36 379.28 113.232 379.152 113.104 379.024C112.976 378.896 112.72 378.768 112.208 378.64C111.696 378.512 111.312 378.384 111.056 378.384C110.8 378.384 110.288 378.256 109.52 378C107.984 377.744 101.712 377.488 90.704 377.104C79.696 376.848 73.04 376.592 70.736 376.592C69.2 376.592 68.048 375.696 67.28 373.904C65.616 370.32 65.488 365.84 66.896 360.592C67.024 359.696 68.176 359.056 70.352 358.544C70.608 358.416 73.168 358.416 78.032 358.416C82.896 358.416 85.456 358.416 85.712 358.416C88.4 358.416 96.336 358.16 109.392 357.904C122.448 357.648 130 357.392 132.304 357.264C134.864 357.136 142.032 357.008 153.68 356.88C165.328 356.88 171.856 356.752 173.264 356.752C175.056 356.752 176.592 357.904 177.744 360.464C179.536 364.304 179.92 368.016 178.896 371.728C178.512 373.008 177.488 374.032 175.824 374.544C173.904 375.312 167.248 375.952 155.856 376.208C144.336 376.592 138.448 376.72 137.936 376.72L135.76 377.104ZM168.784 343.696C159.824 343.696 154.96 343.824 154.064 343.824C153.04 343.824 150.48 344.08 146.64 344.336C145.36 344.592 144.592 344.464 144.08 343.952C143.568 343.568 143.312 342.8 143.312 341.648C143.312 341.136 143.44 337.808 143.44 331.408C139.984 331.92 138.192 332.176 138.064 332.176C129.872 334.352 120.016 335.632 108.496 336.016C105.808 336.144 99.152 336.528 88.528 337.168C87.12 337.296 85.712 336.656 84.304 335.376C82.896 334.096 82.128 332.56 81.872 330.896C81.36 327.184 81.232 323.856 81.232 320.912C81.232 320.4 81.36 319.888 81.872 319.12C82.256 318.48 82.64 318.096 83.152 317.84C87.76 316.688 91.472 316.048 94.288 315.792C98.896 315.536 105.68 315.28 114.512 315.024C123.344 314.768 128.848 314.512 130.896 314.384C130.896 314.384 132.56 314 135.888 313.232C135.504 312.976 134.992 312.464 134.48 311.824C133.968 311.312 133.456 310.8 133.072 310.544C132.688 310.288 132.304 310.032 131.92 309.904C127.824 309.008 123.856 308.368 119.76 307.984C111.312 307.216 104.272 306.832 98.64 306.704C95.568 306.704 88.912 306.832 78.8 307.216C76.496 307.344 75.344 306.576 75.344 305.04C74.832 297.36 74.704 292.88 74.704 291.344C74.704 288.4 74.192 286.736 73.424 286.48V285.712C75.088 285.456 75.984 285.2 76.112 285.2C90.448 285.2 98.896 285.2 101.2 285.2C106.704 285.456 115.792 286.352 128.592 287.76C136.4 288.528 145.232 289.68 155.088 290.96C158.928 291.6 162.64 293.648 166.352 297.232C170.064 300.816 171.856 304.272 171.728 307.728V309.264C171.216 320.656 170.32 329.104 168.912 334.608C168.656 335.376 168.528 336.272 168.528 337.296C168.528 338.32 168.528 339.472 168.656 340.752C168.656 342.032 168.784 343.056 168.784 343.696ZM274.128 282.256C278.992 282 281.68 281.872 281.936 281.872C284.752 282 287.44 282.256 290.256 282.64C293.072 283.024 295.504 283.28 297.68 283.408C300.112 283.664 301.392 285.072 301.52 287.504C301.52 290.576 301.776 295.312 302.16 301.584C302.544 307.984 302.8 312.72 302.928 315.92C303.056 318.352 303.056 322.704 303.056 328.848C303.056 335.12 303.056 339.472 303.056 341.776C303.056 345.232 303.056 352.272 303.056 363.024C303.056 373.776 303.056 380.944 303.056 384.4V384.656C303.056 386.448 302.8 388.24 302.288 389.776C301.136 392.976 299.088 394.512 296.144 394.384C294.736 394.384 293.072 394.512 291.28 394.512C289.488 394.512 287.952 394.512 286.672 394.256C285.648 394.256 284.496 393.872 283.472 393.232C282.32 392.72 281.552 391.952 281.296 391.184C278.736 385.04 277.456 380.304 277.328 376.976C276.944 369.552 276.688 356.88 276.56 339.216C276.432 321.552 276.304 309.52 276.048 302.992C276.048 300.944 275.92 298.896 275.664 296.592C275.408 294.288 275.152 291.728 274.896 288.784L274.128 282.256ZM225.232 378.384V367.888C225.232 366.48 224.976 365.584 224.208 365.072C223.44 364.688 222.288 364.432 221.008 364.432C220.24 364.56 218.576 364.688 216.016 364.816C213.456 365.072 211.408 365.072 210 365.072C207.952 365.072 205.904 364.688 203.856 363.92C200.912 362.896 198.864 361.616 197.712 359.824C196.56 358.16 196.176 355.728 196.432 352.656C196.432 352.016 196.688 351.504 197.456 351.248C197.968 351.12 198.864 350.736 200.4 350.096C201.808 349.456 202.96 348.944 203.984 348.688C205.008 348.432 206.032 348.176 207.056 347.92C211.152 347.664 217.296 345.872 225.616 342.8C227.664 342.032 229.2 339.984 230.224 336.656C231.248 333.328 230.992 330.896 229.584 329.232C228.944 328.592 227.024 328.08 223.824 327.568C222.288 327.312 218.832 326.928 213.328 326.16C207.824 325.52 203.6 324.88 200.656 324.368C197.712 323.856 195.536 322.832 194.256 321.296C192.976 319.76 192.336 317.328 192.464 314V310.544C192.464 309.392 192.464 308.24 192.464 307.216C192.464 306.192 192.72 305.04 192.976 303.76C193.232 302.608 193.744 301.584 194.256 300.56C194.64 299.792 194.896 299.28 195.024 299.28C195.152 299.28 195.408 299.152 195.792 299.024C197.328 298.512 198.48 298 199.248 297.744C200.016 297.488 201.168 297.232 202.448 296.976C203.728 296.72 205.008 296.72 206.288 296.72C207.44 296.848 208.592 297.104 209.872 297.488C211.536 298 213.2 298.512 214.992 298.896C216.784 299.28 218.96 299.664 221.776 300.176C224.592 300.688 226.256 300.944 227.024 300.944C228.048 301.2 231.248 301.712 236.624 302.608C242 303.504 246.096 304.272 249.04 304.784C251.6 305.424 253.776 306.704 255.312 308.496C256.848 310.288 257.744 312.592 257.872 315.408C257.872 316.688 258.128 319.376 258.512 323.216C258.768 327.056 258.896 330.128 258.896 332.176C258.896 335.12 258.256 341.008 257.232 349.968C256.464 355.856 255.44 364.048 254.16 374.672C253.392 379.792 252.752 383.76 252.24 386.704C251.728 389.264 250.192 390.416 247.376 390.288C240.464 390.288 234.96 390.032 230.608 389.776C228.816 389.648 227.536 389.008 226.64 387.856C225.616 386.832 225.232 385.424 225.232 383.632V378.384Z" fill="#633B1C"/>
</svg>
