<svg width="57" height="44" viewBox="0 0 57 44" fill="none" xmlns="http://www.w3.org/2000/svg">
<path d="M3 14.6263C5.21668 16.5967 7.13705 18.3633 8.44807 21.4224C8.95117 22.5962 8.64546 22.7992 9.57139 23.7252C9.96296 24.1167 10.4361 24.7532 10.6947 25.2416C11.6885 27.1189 13.706 28.3331 14.6544 30.0719C15.4234 31.4817 18.3269 33.1745 18.6422 34.5932C18.8458 35.5097 20.9506 38.5046 21.8155 39.2831C22.1202 39.5573 23.7406 41.5356 24.2306 41.305C25.7513 40.5894 27.0668 36.9837 28.0218 35.6042C32.4499 29.2082 36.4216 22.736 41.9228 16.9291C43.4821 15.2833 44.6005 13.2405 46.2476 11.5934C47.1271 10.7138 48.3946 9.33852 48.9997 8.27958C49.9187 6.67139 51.9824 3.78335 53.5491 3" stroke="#FF0000" stroke-width="5" stroke-linecap="round"/>
</svg>
