<svg width="35" height="35" viewBox="0 0 35 35" fill="none" xmlns="http://www.w3.org/2000/svg">
<g id="&#240;&#159;&#166;&#134; icon &#34;stop&#34;">
<path id="Vector" d="M0 5C0 3.67392 0.526784 2.40215 1.46447 1.46447C2.40215 0.526784 3.67392 0 5 0H30C31.3261 0 32.5979 0.526784 33.5355 1.46447C34.4732 2.40215 35 3.67392 35 5V30C35 31.3261 34.4732 32.5979 33.5355 33.5355C32.5979 34.4732 31.3261 35 30 35H5C3.67392 35 2.40215 34.4732 1.46447 33.5355C0.526784 32.5979 0 31.3261 0 30V5ZM30 5H5V30H30V5Z" fill="#4E413B"/>
</g>
</svg>
