
<svg width="72" height="64" viewBox="0 0 72 64" fill="none" xmlns="http://www.w3.org/2000/svg">
<path d="M36 5.51541C31.8113 1.75939 26.3218 -0.213 20.7004 0.0182637C15.0791 0.249528 9.77015 2.66617 5.90413 6.75356C2.03811 10.841 -0.079491 16.2761 0.00228322 21.9016C0.0840574 27.5271 2.35874 32.8984 6.34194 36.8717L30.9125 61.4386C32.2619 62.7877 34.0919 63.5455 36 63.5455C37.9081 63.5455 39.7381 62.7877 41.0875 61.4386L65.6581 36.8717C69.6413 32.8984 71.9159 27.5271 71.9977 21.9016C72.0795 16.2761 69.9619 10.841 66.0959 6.75356C62.2299 2.66617 56.9209 0.249528 51.2996 0.0182637C45.6782 -0.213 40.1887 1.75939 36 5.51541ZM31.7832 11.4305L33.4562 13.0999C34.131 13.7744 35.0459 14.1534 36 14.1534C36.9541 14.1534 37.869 13.7744 38.5438 13.0999L40.2168 11.4305C41.5444 10.0559 43.1325 8.95949 44.8884 8.20523C46.6442 7.45096 48.5327 7.05395 50.4437 7.03734C52.3546 7.02074 54.2497 7.38488 56.0184 8.10851C57.7872 8.83215 59.394 9.90079 60.7453 11.2521C62.0966 12.6034 63.1653 14.2103 63.8889 15.979C64.6125 17.7477 64.9767 19.6428 64.9601 21.5537C64.9435 23.4647 64.5464 25.3532 63.7922 27.109C63.0379 28.8649 61.9415 30.453 60.5669 31.7806L36 56.3511L11.4331 31.7806C8.81147 29.0662 7.36085 25.4308 7.39364 21.6573C7.42643 17.8838 8.94001 14.2742 11.6084 11.6058C14.2767 8.93741 17.8864 7.42383 21.6599 7.39104C25.4334 7.35825 29.0688 8.80887 31.7832 11.4305Z" fill="#BC5148"/>
</svg>
