<svg width="45" height="45" viewBox="0 0 45 45" fill="none" xmlns="http://www.w3.org/2000/svg">
<g id="&#240;&#159;&#166;&#134; icon &#34;image&#34;">
<g id="Group">
<path id="Vector" d="M31.25 17.5C32.2446 17.5 33.1984 17.1049 33.9016 16.4017C34.6049 15.6984 35 14.7446 35 13.75C35 12.7554 34.6049 11.8016 33.9016 11.0983C33.1984 10.3951 32.2446 10 31.25 10C30.2554 10 29.3016 10.3951 28.5983 11.0983C27.8951 11.8016 27.5 12.7554 27.5 13.75C27.5 14.7446 27.8951 15.6984 28.5983 16.4017C29.3016 17.1049 30.2554 17.5 31.25 17.5Z" fill="#FEF8E6"/>
<path id="Vector_2" d="M0 5C0 3.67392 0.526784 2.40215 1.46447 1.46447C2.40215 0.526784 3.67392 0 5 0H40C41.3261 0 42.5979 0.526784 43.5355 1.46447C44.4732 2.40215 45 3.67392 45 5V40C45 41.3261 44.4732 42.5979 43.5355 43.5355C42.5979 44.4732 41.3261 45 40 45H5C3.67392 45 2.40215 44.4732 1.46447 43.5355C0.526784 42.5979 0 41.3261 0 40V5ZM40 5H5V24.8L13.4375 18.05C13.8809 17.695 14.432 17.5016 15 17.5016C15.568 17.5016 16.1191 17.695 16.5625 18.05L27.3125 26.65L30.7325 23.2325C31.2013 22.7638 31.8371 22.5005 32.5 22.5005C33.1629 22.5005 33.7987 22.7638 34.2675 23.2325L40 28.965V5ZM5 40H40V36.035L32.5 28.535L29.2675 31.7675C28.8325 32.2028 28.2523 32.4623 27.6379 32.4964C27.0234 32.5306 26.418 32.3369 25.9375 31.9525L15 23.2L5 31.2V40Z" fill="#FEF8E6"/>
</g>
</g>
</svg>
