<svg width="45" height="53" viewBox="0 0 45 53" fill="none" xmlns="http://www.w3.org/2000/svg">
<g id="&#240;&#159;&#166;&#134; icon &#34;undo&#34;">
<path id="Vector" d="M21.7244 0.775023C22.2207 1.27142 22.4994 1.94459 22.4994 2.64649C22.4994 3.3484 22.2207 4.02157 21.7244 4.51796L18.3018 7.94061H22.5C34.8141 7.94061 45 18.1265 45 30.4406C45 42.7547 34.8141 52.9406 22.5 52.9406C10.1859 52.9406 0 42.7547 0 30.4406C0 29.7386 0.278886 29.0653 0.775306 28.5689C1.27173 28.0724 1.94502 27.7936 2.64706 27.7936C3.3491 27.7936 4.02239 28.0724 4.51881 28.5689C5.01523 29.0653 5.29412 29.7386 5.29412 30.4406C5.29412 39.8324 13.1082 47.6465 22.5 47.6465C31.8918 47.6465 39.7059 39.8324 39.7059 30.4406C39.7059 21.0488 31.8918 13.2347 22.5 13.2347H18.3018L21.7244 16.6574C22.2066 17.1566 22.4734 17.8253 22.4674 18.5193C22.4613 19.2134 22.183 19.8773 21.6922 20.3681C21.2014 20.8589 20.5375 21.1372 19.8434 21.1433C19.1494 21.1493 18.4807 20.8825 17.9815 20.4003L10.0403 12.4591C9.54405 11.9627 9.26527 11.2896 9.26527 10.5877C9.26527 9.88577 9.54405 9.2126 10.0403 8.7162L17.9815 0.775023C18.4779 0.278776 19.151 0 19.8529 0C20.5548 0 21.228 0.278776 21.7244 0.775023Z" fill="#4E413B"/>
</g>
</svg>
